<svg xmlns="http://www.w3.org/2000/svg" viewBox="0 0 482.04 482.04"><defs><style>.cls-1{fill:#9dccee;}.cls-2{fill:#68b8e7;}.cls-3{fill:#fff;}.cls-4{fill:#2c398f;}.cls-5{fill:#545eaa;}</style></defs><g id="Background"><circle class="cls-1" cx="241.02" cy="241.02" r="241.02"/></g><g id="Star"><path class="cls-2" d="M412.77,130.54l27.88,2.86L417.4,117.74l24.28-10.89-.46-.7L415,104.34l12.23-16.93c-.74-.9-1.49-1.77-2.24-2.66l-18.76,9.17,2.7-26.34-.54-.52-15,22.23L382,63.71l-1.93,28L357.31,75.26l12.31,25.19-27.89-2.86L365,113.25l-25.58,11.47,28,1.93L351,149.38l25.19-12.32L373.29,165,389,141.7l11.47,25.58,1.93-28,22.73,16.42Z" transform="translate(-0.56 -0.26)"/><polygon class="cls-3" points="409.48 136.09 397.43 127.55 396.54 142.29 390.38 128.87 382.23 141.19 383.61 126.48 370.39 133.09 378.94 121.04 364.19 120.15 377.62 113.99 365.3 105.84 380 107.22 373.4 94.01 385.45 102.55 386.34 87.81 392.5 101.23 400.64 88.91 399.27 103.62 412.48 97.01 403.94 109.06 418.68 109.95 405.26 116.11 417.58 124.26 402.87 122.88 409.48 136.09"/></g><g id="Sammy"><path class="cls-4" d="M465.79,293.64c-2.83-13-7-26.25-5.31-37.23a48.25,48.25,0,0,0,.44-12,47.21,47.21,0,0,0-2.22-10.64c-4.65-14.62,1.09-33.84-5.76-60.27-2.08-8-4.95-13.47-9.71-16a16.79,16.79,0,0,0-11.12-1.3c-2.21.45-5.32-3.1-10.19-4a9.43,9.43,0,0,0-8,2.22s-.89-2.22-5.76-3.1-2.22,1.77-2.22,1.77c-4-1.33-8.42-40.77-8.42-40.77s-.44-5.32-8.42-1.33-1.33,42.54-1.33,42.54a3.35,3.35,0,0,0-4.87-2.21c4,10.63-6.21,30.58-7.09,47s25.26,39,34.12,52.3,2.22,78,2.22,78c-7.45,27.14-5.24,40.59-1.33,47.87,2.13,4,3.54,8.27,5.32,12.41a6.1,6.1,0,0,1,.44,3.54l6.87,6.68a240.8,240.8,0,0,0,46.31-80.37A225.68,225.68,0,0,0,465.79,293.64Z" transform="translate(-0.56 -0.26)"/><path class="cls-4" d="M415.34,380.62c-.15.74-.52,1.72-.85,1.7-.54,0-.77-2.64-.85-3.39-.59-5.47-3.85-10.25-8.68-20.33-3.09-6.44-2.88-6.83-5.08-11.44A116,116,0,0,0,383.57,322c-5-5.68-20.19-23-42.35-26.89-11.29-2-16.28-3.17-26.26-5.51a26.64,26.64,0,0,1-12.28-5.93,24.41,24.41,0,0,1-5.51-7.2c2.46,3.39,6.68,8,11.65,7.84,3.33-.14,9.28-2.55,16.73-22.52a165.4,165.4,0,0,0,9.88-61.55c-1.41-40-2.74-77.45-23-117.11-11.21-21.93-21.49-31.37-30-37-10.5-7-21.74-10.56-29.46-13-10.7-3.39-18.25-4.39-24.84-4.52-7.64-.15-14.13.86-14.12,1.41s3.59.26,8.47,2a30.46,30.46,0,0,1,5.93,2.82c-33.85-10.35-52.21-2.29-59.86,2.26-35.92,21.35-41.66,87.56-42.64,98.82-1.92,22.15.49,39-12.14,54.78-8.63,10.75-20.86,16.7-31.06,18.07-8.51,1.14-15.39-.93-16.94-3.11-.37-.51-1.33-1.86-.84-2.82a1.92,1.92,0,0,1,1.31-.86c1.63-.43,3.2,1.14,3.2,1.14-2.82-6.21-7.62-2.26-7.62-2.26S55.05,209,73.12,219.12s25.74,1.54,25.74,1.54a17.9,17.9,0,0,1-23.2,2.41A41.88,41.88,0,0,0,87.24,246.5c13.4,13.41,31.24,12.1,33.88,11.86a23.52,23.52,0,0,1-29.64-.28A41.93,41.93,0,0,0,129,287.16a125.23,125.23,0,0,1-12.42,5.93c-15.73,6.48-22.51,5.53-30.5,8.47-19.63,7.23-28.25,31.17-33.6,46A111.07,111.07,0,0,0,46,382.88c15.61,20.57,55.46,67.07,123.54,88.39C171.88,472,206,482,241,482a240.54,240.54,0,0,0,187-89" transform="translate(-0.56 -0.26)"/><line class="cls-5" x1="413.92" y1="382.05" x2="426.38" y2="394.12"/><path class="cls-1" d="M421.52,401.35c-.64-5.65-3.71-20-17.57-48.9-19-39.53-4.4-5.88-4.4-5.88s17.3,34.95,21.62,55.17Z" transform="translate(-0.56 -0.26)"/><path class="cls-4" d="M329.86,235.87s-8.72,34-22.27,50.9a217.33,217.33,0,0,0-22.48,35l-37.68-27.57Z" transform="translate(-0.56 -0.26)"/><path class="cls-1" d="M371.39,173s-1.72,58.25-48.16,93.86c0,0,26.94-21,36.22-39.65S371.39,173,371.39,173Z" transform="translate(-0.56 -0.26)"/><path class="cls-1" d="M290.35,301.85s48.79-28.05,44.82-105.32C335.17,196.53,351.16,267.79,290.35,301.85Z" transform="translate(-0.56 -0.26)"/></g></svg>